<svg width="2500" height="814" viewBox="0 0 2500 814" fill="none" xmlns="http://www.w3.org/2000/svg">
<path d="M2499.84 253.797H2300.77V581.898C2300.77 596.714 2295.01 609.302 2285.76 619.607C2276.46 628.77 2263.73 633.337 2248.75 634.451H2133.03C2116.82 633.309 2104.1 628.742 2094.82 619.607C2085.55 609.33 2079.78 596.77 2079.78 581.898V253.797H1880.74V599.054C1881.91 644.811 1890.01 684.776 1909.7 716.776C1929.34 748.803 1954.79 772.81 1988.35 788.796C2023.11 804.782 2062.43 813.972 2107.52 813.972H2300.83V811.688C2342.49 811.688 2378.33 802.554 2408.44 785.398C2437.63 767.236 2460.94 741.027 2475.59 709.924C2491.74 677.925 2499.84 640.16 2499.84 599.026V253.797ZM508.068 274.378C473.339 259.534 435.156 252.655 393.493 253.797H265.021L215.253 259.534C203.667 262.96 197.874 265.243 197.874 265.243V0H0V814H197.902V484.729C199.072 470.999 203.695 457.297 214.111 448.162C224.527 439.028 236.112 433.318 252.293 433.318H368.038C381.935 433.318 394.662 439.083 405.078 448.162C415.494 457.325 420.117 471.027 421.287 484.729V814H619.189V459.581C619.189 410.398 608.773 370.405 589.111 339.519C568.252 309.803 541.627 288.108 508.068 274.378V274.378ZM1181.62 581.926C1180.45 596.742 1175.83 609.302 1166.58 619.635C1156.17 628.77 1143.44 633.337 1128.4 634.451H1012.65C997.615 633.309 984.888 628.742 975.614 619.635C965.198 609.33 960.575 596.77 959.405 581.926V253.797H761.503V599.054C761.503 644.811 770.777 684.776 789.297 716.776C807.817 748.803 834.414 772.81 868.001 788.796C902.73 804.782 940.912 813.972 987.199 813.972H1181.62V811.688C1223.28 811.688 1259.18 802.554 1288.12 785.398C1317.35 766.963 1340.96 740.857 1356.38 709.924C1371.42 677.925 1379.55 640.16 1380.69 599.026V253.797H1181.62V581.926ZM1531.14 814H1729.04V0H1531.14V814V814Z" fill="white"/>
</svg>
